<svg width="31" height="31" viewBox="0 0 31 31" fill="none" xmlns="http://www.w3.org/2000/svg">
<path d="M10.85 15.1125C10.3361 15.1125 9.84333 15.3166 9.47998 15.68C9.11663 16.0433 8.9125 16.5361 8.9125 17.05C8.9125 17.5639 9.11663 18.0567 9.47998 18.42C9.84333 18.7834 10.3361 18.9875 10.85 18.9875C11.1044 18.9875 11.3564 18.9374 11.5914 18.84C11.8265 18.7426 12.0401 18.5999 12.22 18.42C12.3999 18.2401 12.5426 18.0265 12.64 17.7914C12.7374 17.5564 12.7875 17.3044 12.7875 17.05C12.7875 16.7956 12.7374 16.5436 12.64 16.3085C12.5426 16.0735 12.3999 15.8599 12.22 15.68C12.0401 15.5001 11.8265 15.3574 11.5914 15.26C11.3564 15.1626 11.1044 15.1125 10.85 15.1125ZM20.15 15.1125C19.6361 15.1125 19.1433 15.3166 18.78 15.68C18.4166 16.0433 18.2125 16.5361 18.2125 17.05C18.2125 17.5639 18.4166 18.0567 18.78 18.42C19.1433 18.7834 19.6361 18.9875 20.15 18.9875C20.6639 18.9875 21.1567 18.7834 21.52 18.42C21.8834 18.0567 22.0875 17.5639 22.0875 17.05C22.0875 16.5361 21.8834 16.0433 21.52 15.68C21.1567 15.3166 20.6639 15.1125 20.15 15.1125ZM15.5 0C13.4645 0 11.449 0.400919 9.56841 1.17987C7.68786 1.95882 5.97915 3.10054 4.53984 4.53984C1.63303 7.44666 0 11.3891 0 15.5C0 19.6109 1.63303 23.5533 4.53984 26.4602C5.97915 27.8995 7.68786 29.0412 9.56841 29.8201C11.449 30.5991 13.4645 31 15.5 31C19.6109 31 23.5533 29.367 26.4602 26.4602C29.367 23.5533 31 19.6109 31 15.5C31 13.4645 30.5991 11.449 29.8201 9.56841C29.0412 7.68786 27.8995 5.97915 26.4602 4.53984C25.0208 3.10054 23.3121 1.95882 21.4316 1.17987C19.551 0.400919 17.5355 0 15.5 0ZM15.5 27.9C8.6645 27.9 3.1 22.3355 3.1 15.5C3.1 15.0505 3.1 14.601 3.1775 14.167C6.8355 12.5395 9.734 9.548 11.253 5.8435C13.0251 8.35819 15.5071 10.287 18.3815 11.3832C21.2559 12.4794 24.392 12.6931 27.3885 11.997C27.714 13.0975 27.9 14.2755 27.9 15.5C27.9 22.3355 22.3355 27.9 15.5 27.9Z" fill="#FFFEFB"/>
</svg>
