<svg width="31" height="31" viewBox="0 0 31 31" fill="none" xmlns="http://www.w3.org/2000/svg">
<path d="M15.5 0C12.4344 0 9.43763 0.909059 6.88867 2.61222C4.33971 4.31538 2.35303 6.73615 1.17987 9.5684C0.00671591 12.4007 -0.300236 15.5172 0.297835 18.5239C0.895906 21.5306 2.37214 24.2924 4.53985 26.4601C6.70756 28.6279 9.4694 30.1041 12.4761 30.7022C15.4828 31.3002 18.5993 30.9933 21.4316 29.8201C24.2638 28.647 26.6846 26.6603 28.3878 24.1113C30.0909 21.5624 31 18.5656 31 15.5C30.9957 11.3905 29.3612 7.45051 26.4554 4.54464C23.5495 1.63876 19.6095 0.00433973 15.5 0ZM11.5699 21.4615H19.4301C18.6298 24.1949 17.2885 26.6585 15.5 28.599C13.7115 26.6585 12.3702 24.1949 11.5699 21.4615ZM11.0289 19.0769C10.6334 16.7087 10.6334 14.2913 11.0289 11.9231H19.9712C20.3666 14.2913 20.3666 16.7087 19.9712 19.0769H11.0289ZM2.38462 15.5C2.38358 14.2905 2.55061 13.0866 2.88092 11.9231H8.61294C8.25724 14.2944 8.25724 16.7056 8.61294 19.0769H2.88092C2.55061 17.9134 2.38358 16.7095 2.38462 15.5ZM19.4301 9.53846H11.5699C12.3702 6.80509 13.7115 4.34149 15.5 2.40101C17.2885 4.34149 18.6298 6.80509 19.4301 9.53846ZM22.3871 11.9231H28.1191C28.7808 14.2618 28.7808 16.7382 28.1191 19.0769H22.3871C22.7428 16.7056 22.7428 14.2944 22.3871 11.9231ZM27.1801 9.53846H21.8997C21.2912 7.14417 20.2694 4.87452 18.8802 2.83173C20.655 3.30868 22.3104 4.1518 23.7398 5.30686C25.1693 6.46191 26.3412 7.90335 27.1801 9.53846ZM12.1198 2.83173C10.7306 4.87452 9.70876 7.14417 9.10029 9.53846H3.81986C4.65884 7.90335 5.83073 6.46191 7.26018 5.30686C8.68963 4.1518 10.345 3.30868 12.1198 2.83173ZM3.81986 21.4615H9.10029C9.70876 23.8558 10.7306 26.1255 12.1198 28.1683C10.345 27.6913 8.68963 26.8482 7.26018 25.6931C5.83073 24.5381 4.65884 23.0966 3.81986 21.4615ZM18.8802 28.1683C20.2694 26.1255 21.2912 23.8558 21.8997 21.4615H27.1801C26.3412 23.0966 25.1693 24.5381 23.7398 25.6931C22.3104 26.8482 20.655 27.6913 18.8802 28.1683Z" fill="#FFFEFB"/>
</svg>
