<svg width="61" height="61" viewBox="0 0 61 61" fill="none" xmlns="http://www.w3.org/2000/svg">
<g clip-path="url(#clip0_967_777)">
<path d="M42.5481 22.7926H58.3045C59.7933 22.7926 60.9999 24.0853 60.9999 25.6798V41.0525C60.9999 46.9126 56.5648 51.6635 51.0938 51.6635H51.0469C45.576 51.6642 41.1401 46.9144 41.1394 41.0541V24.3018C41.1394 24.1036 41.1758 23.9074 41.2466 23.7243C41.3173 23.5412 41.4211 23.3748 41.5519 23.2346C41.6827 23.0945 41.838 22.9833 42.009 22.9075C42.1799 22.8316 42.3631 22.7926 42.5481 22.7926Z" fill="#5059C9"/>
<path d="M53.1978 19.7537C56.7234 19.7537 59.5816 16.6923 59.5816 12.9159C59.5816 9.13942 56.7234 6.078 53.1978 6.078C49.6721 6.078 46.814 9.13942 46.814 12.9159C46.814 16.6923 49.6721 19.7537 53.1978 19.7537Z" fill="#5059C9"/>
<path d="M33.3372 19.7538C38.4298 19.7538 42.5582 15.3318 42.5582 9.8769C42.5582 4.42204 38.4298 0 33.3372 0C28.2446 0 24.1162 4.42204 24.1162 9.8769C24.1162 15.3318 28.2446 19.7538 33.3372 19.7538Z" fill="#7B83EB"/>
<path d="M45.6322 22.7926H19.6236C18.1527 22.8317 16.9891 24.1392 17.0232 25.7147V43.2483C16.8178 52.703 23.8011 60.549 32.6278 60.7805C41.4544 60.549 48.4377 52.703 48.2326 43.2483V25.7147C48.2667 24.1392 47.1031 22.8317 45.6322 22.7926Z" fill="#7B83EB"/>
<path opacity="0.1" d="M34.0465 22.7926V47.3631C34.0431 47.9142 33.8878 48.4519 33.6 48.9088C33.3123 49.3657 32.905 49.7214 32.4293 49.9312C32.1195 50.0716 31.7866 50.1438 31.4504 50.1438H18.2713C18.0869 49.6423 17.9167 49.1408 17.7747 48.6244C17.2782 46.8808 17.0248 45.0682 17.0229 43.2452V25.7101C16.9889 24.1372 18.1505 22.8317 19.619 22.7929H34.0462L34.0465 22.7926Z" fill="black"/>
<path opacity="0.2" d="M32.6278 22.7926V48.8827C32.6278 49.2429 32.5603 49.5994 32.4293 49.9312C32.2334 50.4408 31.9013 50.8771 31.4748 51.1853C31.0482 51.4935 30.5462 51.6598 30.0317 51.6635H18.9385C18.6974 51.1619 18.4703 50.6604 18.2718 50.1438C18.0811 49.6472 17.9154 49.14 17.7752 48.6244C17.2786 46.8808 17.0253 45.0682 17.0234 43.2452V25.7101C16.9894 24.1372 18.151 22.8317 19.6195 22.7929H32.628L32.6278 22.7926Z" fill="black"/>
<path opacity="0.2" d="M32.6278 22.7926V45.8437C32.617 47.3746 31.4611 48.613 30.0317 48.6244H17.775C17.2784 46.8808 17.0251 45.0682 17.0232 43.2452V25.7101C16.9891 24.1372 18.1507 22.8317 19.6193 22.7929L32.6278 22.7926Z" fill="black"/>
<path opacity="0.2" d="M31.2093 22.7926V45.8437C31.1983 47.3746 30.0424 48.613 28.6132 48.6244H17.775C17.2784 46.8808 17.0251 45.0682 17.0232 43.2452V25.7101C16.9891 24.1372 18.1507 22.8317 19.6193 22.7929L31.2093 22.7926Z" fill="black"/>
<path opacity="0.1" d="M34.0465 14.9369V19.7232C33.8054 19.7385 33.5783 19.7538 33.3372 19.7538C33.096 19.7538 32.8689 19.7385 32.6278 19.7232C32.149 19.6892 31.6741 19.6079 31.2093 19.4802C29.7931 19.121 28.4764 18.4078 27.3668 17.3989C26.2573 16.3901 25.3864 15.1143 24.8255 13.6758C24.6298 13.1857 24.4778 12.6769 24.3716 12.1561H31.4504C32.8818 12.162 34.041 13.4034 34.0465 14.9369Z" fill="black"/>
<path opacity="0.2" d="M32.628 16.4563V19.7232C32.1492 19.6892 31.6743 19.6079 31.2095 19.4802C29.7933 19.121 28.4766 18.4077 27.3671 17.3989C26.2576 16.3901 25.3868 15.1142 24.8259 13.6758H30.0319C31.4635 13.6814 32.6225 14.9231 32.628 16.4563Z" fill="black"/>
<path opacity="0.2" d="M32.628 16.4563V19.7232C32.1492 19.6892 31.6743 19.6079 31.2095 19.4802C29.7933 19.121 28.4766 18.4077 27.3671 17.3989C26.2576 16.3901 25.3868 15.1142 24.8259 13.6758H30.0319C31.4635 13.6814 32.6225 14.9231 32.628 16.4563Z" fill="black"/>
<path opacity="0.2" d="M31.2095 16.4563V19.4802C29.7932 19.121 28.4765 18.4077 27.3669 17.3988C26.2574 16.39 25.3866 15.1141 24.8257 13.6755H28.6134C30.045 13.6814 31.204 14.9231 31.2095 16.4563Z" fill="black"/>
<path d="M2.60036 13.6754H28.6088C30.0451 13.6754 31.2094 14.9225 31.2094 16.4608V44.3194C31.2094 45.8576 30.0451 47.1047 28.609 47.1047H2.60036C1.16424 47.1047 0 45.8576 0 44.3194V16.461C0 14.9222 1.16424 13.6754 2.60036 13.6754Z" fill="url(#paint0_linear_967_777)"/>
<path d="M22.4481 24.2788H17.2488V39.4436H13.9365V24.2788H8.76147V21.337H22.4481V24.2788Z" fill="white"/>
</g>
<defs>
<linearGradient id="paint0_linear_967_777" x1="542.169" y1="-203.951" x2="2795.81" y2="3440.02" gradientUnits="userSpaceOnUse">
<stop stop-color="#5A62C3"/>
<stop offset="0.5" stop-color="#4D55BD"/>
<stop offset="1" stop-color="#3940AB"/>
</linearGradient>
<clipPath id="clip0_967_777">
<rect width="61" height="61" fill="white"/>
</clipPath>
</defs>
</svg>
