<svg width="67" height="61" viewBox="0 0 67 61" fill="none" xmlns="http://www.w3.org/2000/svg">
<g clip-path="url(#clip0_967_770)">
<path d="M5.0653 52.2187L8.02011 57.413C8.6341 58.5068 9.51662 59.3661 10.5528 59.991C13.5207 56.1568 15.5861 53.2144 16.7503 51.1641C17.9314 49.0835 19.3832 45.8286 21.1055 41.4001C16.4637 40.7781 12.9462 40.4673 10.553 40.4673C8.25592 40.4673 4.73842 40.7781 0 41.4001C0 42.6108 0.306996 43.8215 0.920988 44.9152L5.0653 52.2187Z" fill="#0066DA"/>
<path d="M56.4479 59.991C57.4843 59.3661 58.3668 58.5068 58.9805 57.4133L60.2085 55.2652L66.0799 44.9152C66.6825 43.8452 66.9999 42.6335 67.0006 41.4001C62.2348 40.7781 58.7238 40.4673 56.4673 40.4673C54.0422 40.4673 50.5309 40.7781 45.9336 41.4001C47.6356 45.8529 49.0682 49.1077 50.2315 51.1641C51.4048 53.2389 53.4769 56.181 56.4479 59.991Z" fill="#EA4335"/>
<path d="M33.5003 19.5283C36.934 15.3075 39.3005 12.0527 40.5994 9.76426C41.6455 7.92148 42.7968 4.97909 44.053 0.937376C43.0169 0.312459 41.8274 0 40.5994 0H26.4012C25.1732 0 23.9839 0.351616 22.9475 0.937376C24.5456 5.57284 25.9018 8.8719 27.0157 10.8343C28.2468 13.0031 30.4083 15.901 33.5003 19.5283Z" fill="#00832D"/>
<path d="M45.895 41.4001H21.1055L10.553 59.991C11.5889 60.6159 12.7784 60.9284 14.0064 60.9284H52.9941C54.2221 60.9284 55.4118 60.5768 56.4477 59.9908L45.8952 41.4001H45.895Z" fill="#2684FC"/>
<path d="M33.5003 19.5282L22.9478 0.937622C21.9114 1.56254 21.0288 2.4216 20.4148 3.51534L0.920988 37.885C0.318283 38.955 0.000796272 40.1667 0 41.4001H21.1055L33.5003 19.5282Z" fill="#00AC47"/>
<path d="M56.3328 20.7L46.5856 3.51509C45.9719 2.42136 45.0891 1.56229 44.053 0.937378L33.5005 19.5283L45.895 41.4001H66.9623C66.9623 40.1891 66.6553 38.9787 66.0413 37.885L56.3328 20.7Z" fill="#FFBA00"/>
</g>
<defs>
<clipPath id="clip0_967_770">
<rect width="67" height="61" fill="white"/>
</clipPath>
</defs>
</svg>
