<svg width="53" height="53" viewBox="0 0 53 53" fill="none" xmlns="http://www.w3.org/2000/svg">
<path fill-rule="evenodd" clip-rule="evenodd" d="M4.07692 0C2.99566 0 1.95867 0.429531 1.1941 1.1941C0.429531 1.95867 0 2.99566 0 4.07692V48.9231C0 50.0043 0.429531 51.0413 1.1941 51.8059C1.95867 52.5705 2.99566 53 4.07692 53H48.9231C50.0043 53 51.0413 52.5705 51.8059 51.8059C52.5705 51.0413 53 50.0043 53 48.9231V4.07692C53 2.99566 52.5705 1.95867 51.8059 1.1941C51.0413 0.429531 50.0043 0 48.9231 0H4.07692ZM8.35769 20.3846H16.1038V44.8462H8.35769V20.3846ZM16.6135 12.2512C16.6135 13.4135 16.1517 14.5283 15.3298 15.3502C14.5079 16.1721 13.3931 16.6338 12.2308 16.6338C11.0684 16.6338 9.95365 16.1721 9.13174 15.3502C8.30982 14.5283 7.84808 13.4135 7.84808 12.2512C7.84808 11.0888 8.30982 9.97404 9.13174 9.15212C9.95365 8.33021 11.0684 7.86846 12.2308 7.86846C13.3931 7.86846 14.5079 8.33021 15.3298 9.15212C16.1517 9.97404 16.6135 11.0888 16.6135 12.2512ZM44.8462 29.9939C44.8462 22.6351 40.0884 19.7731 35.3632 19.7731C33.8189 19.6981 32.2814 20.0224 30.899 20.7148C29.8512 21.2448 28.7545 22.4435 27.9065 24.539H27.6905V20.3846H20.3846V44.8665H28.1552V31.8408C28.0452 30.5076 28.4692 28.7831 29.3416 27.7598C30.2182 26.7324 31.4616 26.4878 32.4115 26.3655H32.7092C35.1798 26.3655 37.0144 27.8943 37.0144 31.747V44.8625H44.785L44.8462 29.9939Z" fill="#FFFEFB"/>
</svg>
