<svg width="61" height="61" viewBox="0 0 61 61" fill="none" xmlns="http://www.w3.org/2000/svg">
<path d="M46.7031 0H14.2969C6.40093 0 0 6.40093 0 14.2969V46.7031C0 54.5991 6.40093 61 14.2969 61H46.7031C54.5991 61 61 54.5991 61 46.7031V14.2969C61 6.40093 54.5991 0 46.7031 0Z" fill="#242938"/>
<mask id="mask0_967_759" style="mask-type:luminance" maskUnits="userSpaceOnUse" x="14" y="6" width="33" height="49">
<path d="M14.5352 6.67188H46.3123V54.3281H14.5352V6.67188Z" fill="white"/>
</mask>
<g mask="url(#mask0_967_759)">
<path d="M22.4812 54.3281C26.8656 54.3281 30.4238 50.7699 30.4238 46.3855V38.4426H22.4812C18.0968 38.4426 14.5383 42.0011 14.5383 46.3855C14.5383 50.7699 18.0968 54.3281 22.4812 54.3281Z" fill="#0ACF83"/>
<path d="M14.5383 30.5C14.5383 26.1156 18.0968 22.5574 22.4812 22.5574H30.4238V38.4426H22.4812C18.0968 38.4426 14.5383 34.8844 14.5383 30.5Z" fill="#A259FF"/>
<path d="M14.5383 14.6145C14.5383 10.2301 18.0968 6.67188 22.4812 6.67188H30.4238V22.5574H22.4812C18.0968 22.5574 14.5383 18.9989 14.5383 14.6145Z" fill="#F24E1E"/>
<path d="M30.4241 6.67188H38.3667C42.7511 6.67188 46.3096 10.2301 46.3096 14.6145C46.3096 18.9989 42.7511 22.5574 38.3667 22.5574H30.4241V6.67188Z" fill="#FF7262"/>
<path d="M46.3096 30.5C46.3096 34.8844 42.7511 38.4426 38.3667 38.4426C33.9823 38.4426 30.4241 34.8844 30.4241 30.5C30.4241 26.1156 33.9823 22.5574 38.3667 22.5574C42.7511 22.5574 46.3096 26.1156 46.3096 30.5Z" fill="#1ABCFE"/>
</g>
</svg>
