<svg width="51" height="51" viewBox="0 0 51 51" fill="none" xmlns="http://www.w3.org/2000/svg">
<path d="M10.2567 22.0717C14.3367 30.09 20.91 36.635 28.9283 40.7433L35.1617 34.51C35.9267 33.745 37.06 33.49 38.0517 33.83C41.225 34.8783 44.6533 35.445 48.1667 35.445C49.725 35.445 51 36.72 51 38.2783V48.1667C51 49.725 49.725 51 48.1667 51C21.5617 51 0 29.4383 0 2.83333C0 1.275 1.275 0 2.83333 0H12.75C14.3083 0 15.5833 1.275 15.5833 2.83333C15.5833 6.375 16.15 9.775 17.1983 12.9483C17.51 13.94 17.2833 15.045 16.49 15.8383L10.2567 22.0717Z" fill="#FFFEFB"/>
</svg>
