<svg width="61" height="61" viewBox="0 0 61 61" fill="none" xmlns="http://www.w3.org/2000/svg">
<g clip-path="url(#clip0_967_792)">
<path d="M55.043 0H5.95703C2.66705 0 0 2.66705 0 5.95703V55.043C0 58.3329 2.66705 61 5.95703 61H55.043C58.3329 61 61 58.3329 61 55.043V5.95703C61 2.66705 58.3329 0 55.043 0Z" fill="url(#paint0_linear_967_792)"/>
<path d="M50.2107 7.93005H37.3245C35.7453 7.93005 34.4651 9.21024 34.4651 10.7894V31.7582C34.4651 33.3374 35.7453 34.6176 37.3245 34.6176H50.2107C51.7899 34.6176 53.0701 33.3374 53.0701 31.7582V10.7894C53.0701 9.21024 51.7899 7.93005 50.2107 7.93005Z" fill="white"/>
<path d="M23.6756 7.93005H10.7893C9.21012 7.93005 7.92993 9.21024 7.92993 10.7894V47.0082C7.92993 48.5874 9.21012 49.8676 10.7893 49.8676H23.6756C25.2547 49.8676 26.5349 48.5874 26.5349 47.0082V10.7894C26.5349 9.21024 25.2547 7.93005 23.6756 7.93005Z" fill="white"/>
</g>
<defs>
<linearGradient id="paint0_linear_967_792" x1="3050" y1="0" x2="3050" y2="6100" gradientUnits="userSpaceOnUse">
<stop stop-color="#0091E6"/>
<stop offset="1" stop-color="#0079BF"/>
</linearGradient>
<clipPath id="clip0_967_792">
<rect width="61" height="61" fill="white"/>
</clipPath>
</defs>
</svg>
