<svg width="166" height="61" viewBox="0 0 166 61" fill="none" xmlns="http://www.w3.org/2000/svg">
<path d="M0 20C0 8.95431 8.95431 0 20 0H146C157.046 0 166 8.95431 166 20V41C166 52.0457 157.046 61 146 61H20C8.9543 61 0 52.0457 0 41V20Z" fill="white"/>
<path d="M95.0561 25.0599C93.0181 25.0599 91.6692 25.9118 89.8621 27.3403V17.257L89.3685 17L83.1225 19.9383V20.388L85.5388 21.8656V40.218C87.7581 41.1808 89.7468 41.4378 91.7845 41.4378C96.338 41.4378 100.826 38.3546 100.826 32.5748C100.809 28.255 98.3603 25.0599 95.0561 25.0599ZM92.7551 39.2052C91.5385 39.2052 90.6172 38.6594 89.8452 37.7276V28.544C90.7233 28.3352 91.6217 28.2223 92.5245 28.2072C94.7438 28.2072 96.2065 30.0047 96.2065 33.6508C96.2234 37.1829 95.0892 39.2052 92.7551 39.2052ZM114.699 38.5146V31.3382C114.699 27.2603 113.121 25.0438 109.159 25.0438C106.596 25.0438 104.491 25.9595 102.651 27.7573L103.357 29.1549C104.705 28.3041 105.987 27.7902 107.302 27.7902C109.488 27.7902 110.343 29.0739 110.343 31.5794V32.2381C103.834 32.896 101.943 35.0313 101.943 37.7928C101.943 40.506 103.867 41.4378 105.674 41.4378C107.22 41.4378 108.798 40.7788 110.343 39.7512V41.0359H116.557V38.6924H114.863L114.699 38.5146ZM110.375 38.4675C109.712 38.66 109.028 38.773 108.338 38.8043C107.055 38.8043 106.152 38.1783 106.2 36.7807C106.234 35.1273 107.449 34.3245 110.376 34.0675L110.375 38.4675ZM127.027 38.8843C124.43 38.8843 121.98 36.83 121.98 32.221C121.98 28.9459 123 27.1793 124.924 27.1793C125.713 27.1793 126.32 27.4683 126.994 28.0302L129.854 31.7713H130.347V25.8635C128.936 25.3483 127.446 25.0768 125.942 25.0607C120.665 25.0607 117.395 28.8018 117.395 33.6183C117.395 38.3242 120.402 41.4064 125.104 41.4064C127.273 41.4395 129.379 40.6793 131.022 39.2701L130.314 37.9862C129.181 38.628 128.227 38.8843 127.027 38.8843ZM148.166 38.6924L143.086 31.7069L149.744 25.7186V25.4296H141.426V25.7495L143.58 27.8058L138.763 32.8158L144.549 41.0517H150.5V38.6934H148.166V38.6924Z" fill="black"/>
<path d="M138.451 38.5146V17.2578L137.925 17L131.712 19.9383V20.3711L134.129 21.8487V38.5153L133.931 38.6924H132.238V41.0517H140.341V38.6934H138.649L138.451 38.5163L138.451 38.5146ZM22.8628 19.4245H19V41.0847H32.0678V37.5996H22.8628V19.4245ZM40.4345 25.0918C35.6676 25.0918 32.0678 28.6089 32.0678 33.2647C32.0678 37.9215 35.6674 41.4697 40.4345 41.4697C45.2014 41.4697 48.8343 37.9376 48.8343 33.2647C48.8343 28.593 45.2337 25.0918 40.4345 25.0918ZM40.4345 38.0656C37.7714 38.0656 35.7668 36.0111 35.7668 33.2808C35.7668 30.5515 37.7724 28.512 40.4345 28.512C43.0645 28.512 45.1364 30.5995 45.1364 33.2647C45.1364 35.994 43.1305 38.0656 40.4345 38.0656ZM58.45 25.0758C53.6831 25.0758 50.0833 28.593 50.0833 33.2489C50.0833 37.9057 53.6829 41.4536 58.45 41.4536C63.2169 41.4536 66.8498 37.9215 66.8498 33.2489C66.8498 28.5759 63.2333 25.0758 58.45 25.0758ZM58.45 38.0334C55.7869 38.0334 53.7823 35.9782 53.7823 33.2489C53.7823 30.5195 55.7879 28.4959 58.45 28.4959C61.08 28.4959 63.1519 30.5834 63.1519 33.2489C63.1519 35.9782 61.1293 38.0334 58.45 38.0334ZM82.3499 25.4457H77.3208L72.5367 30.2944V18.6378H68.8385V41.052H72.5375V34.1636L79.0133 41.0527H83.8624L75.5784 32.221L82.3499 25.4457Z" fill="black"/>
</svg>
