<svg width="35" height="37" viewBox="0 0 35 37" fill="none" xmlns="http://www.w3.org/2000/svg">
<path d="M30 26.0762C27.6775 26.0762 25.7375 27.7451 25.1775 29.9876H9.8225C9.59752 29.0918 9.14806 28.2745 8.52025 27.6196C7.89244 26.9648 7.10888 26.496 6.25 26.2613V22.1648C6.25 20.7267 7.37125 19.5571 8.75 19.5571H26.25C29.0075 19.5571 31.25 17.2181 31.25 14.3419V10.2453C33.4 9.66253 35 7.63772 35 5.21524C35 2.33903 32.7575 0 30 0C27.2425 0 25 2.33903 25 5.21524C25 7.63772 26.6 9.66123 28.75 10.2453V14.3419C28.75 15.78 27.6287 16.9495 26.25 16.9495H8.75C5.9925 16.9495 3.75 19.2886 3.75 22.1648V26.2613C1.6 26.8441 0 28.8689 0 31.2914C0 34.1676 2.2425 36.5067 5 36.5067C7.3225 36.5067 9.2625 34.8378 9.8225 32.5952H25.1775C25.7362 34.8378 27.6775 36.5067 30 36.5067C32.7575 36.5067 35 34.1676 35 31.2914C35 28.4152 32.7575 26.0762 30 26.0762ZM27.5 5.21524C27.5 3.77714 28.6213 2.60762 30 2.60762C31.3787 2.60762 32.5 3.77714 32.5 5.21524C32.5 6.65334 31.3787 7.82286 30 7.82286C28.6213 7.82286 27.5 6.65334 27.5 5.21524ZM5 33.899C3.62125 33.899 2.5 32.7295 2.5 31.2914C2.5 29.8533 3.62125 28.6838 5 28.6838C6.37875 28.6838 7.5 29.8533 7.5 31.2914C7.5 32.7295 6.37875 33.899 5 33.899ZM30 33.899C28.6213 33.899 27.5 32.7295 27.5 31.2914C27.5 29.8533 28.6213 28.6838 30 28.6838C31.3787 28.6838 32.5 29.8533 32.5 31.2914C32.5 32.7295 31.3787 33.899 30 33.899Z" fill="#FFFEFB"/>
<path d="M5.09091 10.6201C6.03273 10.6201 6.90327 10.3347 7.66055 9.86742L12.2004 14.6027L14 12.7256L9.46018 7.99031C9.92786 7.18104 10.1772 6.25498 10.1818 5.31006C10.1818 2.38156 7.89855 0 5.09091 0C2.28327 0 0 2.38156 0 5.31006C0 8.23856 2.28327 10.6201 5.09091 10.6201ZM5.09091 2.65503C6.49473 2.65503 7.63636 3.84581 7.63636 5.31006C7.63636 6.77431 6.49473 7.96509 5.09091 7.96509C3.68709 7.96509 2.54545 6.77431 2.54545 5.31006C2.54545 3.84581 3.68709 2.65503 5.09091 2.65503Z" fill="#FFFEFB"/>
</svg>
