<svg width="60" height="60" viewBox="0 0 60 60" fill="none" xmlns="http://www.w3.org/2000/svg">
<path d="M22.1677 14.5881L12.4237 12.0001L14.1957 5.48005C14.3387 4.96677 14.6788 4.53079 15.1418 4.26708C15.6048 4.00336 16.1533 3.93326 16.6677 4.07205L22.5077 5.64005C22.7622 5.70739 23.0009 5.82431 23.2101 5.9841C23.4193 6.14389 23.5949 6.34341 23.7268 6.57121C23.8587 6.79902 23.9444 7.05062 23.9789 7.31161C24.0133 7.57259 23.996 7.8378 23.9277 8.09205L22.1677 14.5881ZM4.0877 44.0121C3.9767 43.6534 3.96976 43.2705 4.0677 42.9081L11.3437 16.0041L21.0837 18.592L13.8077 45.496C13.7102 45.8597 13.5119 46.1883 13.2357 46.444L7.4077 51.8321C7.33241 51.9005 7.24113 51.949 7.14223 51.973C7.04334 51.9971 6.93999 51.9959 6.84166 51.9696C6.74334 51.9434 6.65318 51.8928 6.57945 51.8227C6.50573 51.7525 6.4508 51.665 6.4197 51.5681L4.0877 44.0121ZM39.9997 20.0001C30.9997 20.0001 27.9997 17.0001 27.9997 8.00005C36.9997 8.00005 39.9997 11.0001 39.9997 20.0001ZM34.3997 51.9361C28.9197 52.7761 21.8957 45.112 20.3197 36.736L23.8757 23.6C25.4717 22.2001 27.4877 21.4681 29.5517 21.4681C31.7889 21.4588 33.9742 22.1421 35.8077 23.424C36.4532 23.8573 37.2145 24.0852 37.9919 24.0781C38.7692 24.071 39.5263 23.829 40.1637 23.3841C41.853 22.1326 43.9014 21.4605 46.0037 21.4681C49.0837 21.4681 52.5757 23.424 54.2037 26.272C60.3477 37.056 49.4277 53.108 41.6277 51.94C41.2703 51.8704 40.9261 51.7448 40.6077 51.5681C39.8019 51.1549 38.9093 50.9395 38.0037 50.9395C37.0981 50.9395 36.2055 51.1549 35.3997 51.5681C35.0873 51.7416 34.75 51.8657 34.3997 51.9361Z" fill="#FFFEFB"/>
</svg>
