<svg width="24" height="24" viewBox="0 0 24 24" fill="none" xmlns="http://www.w3.org/2000/svg">
<path fill-rule="evenodd" clip-rule="evenodd" d="M1.84615 0C1.35652 0 0.886947 0.194505 0.540726 0.540726C0.194505 0.886947 0 1.35652 0 1.84615V22.1538C0 22.6435 0.194505 23.1131 0.540726 23.4593C0.886947 23.8055 1.35652 24 1.84615 24H22.1538C22.6435 24 23.1131 23.8055 23.4593 23.4593C23.8055 23.1131 24 22.6435 24 22.1538V1.84615C24 1.35652 23.8055 0.886947 23.4593 0.540726C23.1131 0.194505 22.6435 0 22.1538 0H1.84615ZM3.78462 9.23077H7.29231V20.3077H3.78462V9.23077ZM7.52308 5.54769C7.52308 6.07405 7.31398 6.57884 6.9418 6.95103C6.56961 7.32321 6.06481 7.53231 5.53846 7.53231C5.01211 7.53231 4.50731 7.32321 4.13513 6.95103C3.76294 6.57884 3.55385 6.07405 3.55385 5.54769C3.55385 5.02134 3.76294 4.51654 4.13513 4.14436C4.50731 3.77217 5.01211 3.56308 5.53846 3.56308C6.06481 3.56308 6.56961 3.77217 6.9418 4.14436C7.31398 4.51654 7.52308 5.02134 7.52308 5.54769ZM20.3077 13.5822C20.3077 10.2498 18.1532 8.95385 16.0135 8.95385C15.3142 8.91987 14.618 9.06676 13.992 9.38031C13.5175 9.62031 13.0209 10.1631 12.6369 11.112H12.5391V9.23077H9.23077V20.3169H12.7495V14.4185C12.6997 13.8148 12.8917 13.0338 13.2868 12.5705C13.6837 12.1052 14.2468 11.9945 14.6769 11.9391H14.8117C15.9305 11.9391 16.7612 12.6314 16.7612 14.376V20.3151H20.28L20.3077 13.5822Z" fill="#FFFEFB"/>
</svg>
