<svg width="171" height="1133" viewBox="0 0 171 1133" fill="none" xmlns="http://www.w3.org/2000/svg">
<line x1="86" y1="77" x2="86" y2="1008" stroke="url(#paint0_linear_953_375)" stroke-width="4"/>
<circle cx="85.5" cy="71.5" r="9.5" fill="#D9D9D9"/>
<path d="M83.3127 1008V1039.69H88.2374V1008H83.313L83.3127 1008ZM53.1723 1008.17C48.8547 1008.17 45.35 1011.67 45.35 1015.97C45.35 1020.27 48.8547 1023.76 53.1723 1023.76C56.6959 1023.76 59.671 1021.43 60.6466 1018.24H73.1586V1039.69H78.0835V1013.33H60.533C59.4504 1010.33 56.562 1008.17 53.1723 1008.17ZM106.98 1008.17C102.662 1008.17 99.1659 1011.67 99.1659 1015.97C99.1659 1019.33 101.303 1022.2 104.3 1023.29V1039.69H109.216V1023.43C112.445 1022.48 114.802 1019.5 114.802 1015.97C114.802 1011.67 111.297 1008.17 106.98 1008.17ZM93.6927 1024.73V1039.69H98.609V1024.73H93.6927ZM146.186 1025.84C141.869 1025.84 138.364 1029.34 138.364 1033.64C138.364 1037.27 140.855 1040.32 144.229 1041.18V1048.81H118.352V1053.7H149.153V1040.85C151.999 1039.68 154 1036.9 154 1033.64C154 1029.34 150.503 1025.85 146.186 1025.85L146.186 1025.84ZM28 1033.37V1038.28H46.5334V1053.7H64.0229V1048.81H51.4583V1033.37L28 1033.37ZM68.9386 1044.6V1088.92H113.435V1044.6H68.9389L68.9386 1044.6ZM73.8279 1048.94H78.7442V1070.75L87.7674 1079.74H108.728V1084.64H85.7229L85.0006 1083.92L82.0074 1080.94C81.7198 1082.99 79.9582 1084.57 77.8226 1084.57C75.486 1084.57 73.5932 1082.68 73.5932 1080.35C73.5932 1078.22 75.1791 1076.47 77.2393 1076.19L74.551 1073.51L73.8287 1072.79V1048.94L73.8279 1048.94ZM89.125 1048.99H94.0494V1064.34H108.675L108.676 1069.24H89.1253L89.125 1048.99ZM34.3864 1059.38V1084.34C31.1872 1085.31 28.8612 1088.28 28.8612 1091.79C28.8612 1096.09 32.3575 1099.58 36.6751 1099.58C40.9928 1099.58 44.4972 1096.09 44.4972 1091.79C44.4972 1088.4 42.3282 1085.53 39.3027 1084.45V1064.27H64.0226V1059.38L34.3864 1059.38ZM118.352 1059.38V1064.27H133.378V1059.38H118.351L118.352 1059.38ZM146.186 1065.47C143.152 1065.47 140.522 1067.19 139.225 1069.71H118.351L118.352 1074.62H138.486C139.133 1078.27 142.335 1081.05 146.186 1081.05C150.504 1081.05 154 1077.56 154 1073.26C154 1068.95 150.504 1065.47 146.186 1065.47ZM48.9955 1069.71V1074.62H64.0226V1069.71H48.9955ZM53.7723 1079.83V1103.2C50.5709 1104.17 48.2385 1107.14 48.2385 1110.65C48.2385 1114.95 51.7431 1118.44 56.0608 1118.44C60.3782 1118.44 63.8736 1114.95 63.8736 1110.65C63.8736 1107.26 61.7113 1104.39 58.6881 1103.31V1084.74H64.0218V1079.83H53.7726L53.7723 1079.83ZM118.352 1079.83V1084.74H130.925V1111.18C127.772 1112.18 125.487 1115.13 125.487 1118.61C125.486 1122.91 128.991 1126.39 133.309 1126.39C137.626 1126.39 141.122 1122.91 141.122 1118.61C141.122 1115.19 138.913 1112.29 135.84 1111.24V1079.83H118.351H118.352ZM73.1586 1093.82V1108.82H78.0835V1093.82H73.1586ZM83.313 1093.82V1117.84C80.2466 1118.9 78.0395 1121.79 78.0395 1125.2C78.0395 1129.51 81.5444 1133 85.8621 1133C90.1797 1133 93.6757 1129.51 93.6757 1125.2C93.6757 1121.73 91.3918 1118.78 88.2374 1117.78V1093.82H83.313ZM93.693 1093.82V1108.82H98.6179L98.609 1093.82L93.693 1093.82ZM104.3 1093.82V1132.69H109.215V1093.82H104.3Z" fill="url(#paint1_radial_953_375)"/>
<defs>
<linearGradient id="paint0_linear_953_375" x1="84.001" y1="95.0024" x2="-178.994" y2="1021.5" gradientUnits="userSpaceOnUse">
<stop stop-color="#D9D9D9"/>
<stop offset="1" stop-color="#636363" stop-opacity="0"/>
</linearGradient>
<radialGradient id="paint1_radial_953_375" cx="0" cy="0" r="1" gradientUnits="userSpaceOnUse" gradientTransform="translate(85.7858 1085.17) rotate(-89.1607) scale(80.1023 238.413)">
<stop stop-color="#CACACA"/>
<stop offset="1" stop-color="#FFFEFB" stop-opacity="0"/>
</radialGradient>
</defs>
</svg>
