<svg width="55" height="55" viewBox="0 0 55 55" fill="none" xmlns="http://www.w3.org/2000/svg">
<path d="M38.958 29.7916C38.818 29.789 38.6815 29.8358 38.5725 29.9238C38.4636 30.0118 38.3891 30.1354 38.3622 30.2729L37.9268 33.2979C37.2393 33.5958 36.5747 33.9625 35.9788 34.375L33.1372 33.2291C32.8851 33.2291 32.5872 33.2291 32.4268 33.527L30.1351 37.4916C29.9976 37.7437 30.0434 38.0416 30.2726 38.225L32.7018 40.1041C32.6103 40.8653 32.6103 41.6346 32.7018 42.3958L30.2726 44.275C30.1696 44.3633 30.0999 44.4841 30.0749 44.6174C30.0498 44.7508 30.0711 44.8887 30.1351 45.0083L32.4268 48.9729C32.5643 49.2708 32.8622 49.2708 33.1372 49.2708L35.9788 48.125C36.5747 48.5375 37.2163 48.927 37.9268 49.202L38.3622 52.227C38.408 52.502 38.6372 52.7083 38.958 52.7083H43.5413C43.7934 52.7083 44.0455 52.502 44.0913 52.227L44.5268 49.202C45.2143 48.9041 45.833 48.5375 46.4518 48.125L49.2705 49.2708C49.5684 49.2708 49.8663 49.2708 50.0268 48.9729L52.3184 45.0083C52.3824 44.8887 52.4037 44.7508 52.3787 44.6174C52.3537 44.4841 52.2839 44.3633 52.1809 44.275L49.7288 42.3958C49.7747 42.0062 49.8205 41.6395 49.8205 41.25C49.8205 40.8604 49.7976 40.4937 49.7288 40.1041L52.158 38.225C52.261 38.1366 52.3308 38.0158 52.3558 37.8825C52.3808 37.7491 52.3595 37.6113 52.2955 37.4916L50.0038 33.527C49.8663 33.2291 49.5684 33.2291 49.2705 33.2291L46.4518 34.375C45.833 33.9625 45.2143 33.5729 44.5038 33.2979L44.0684 30.2729C44.054 30.1423 43.9925 30.0215 43.8955 29.933C43.7986 29.8444 43.6727 29.7942 43.5413 29.7916H38.958ZM41.2497 37.8125C43.1518 37.8125 44.6872 39.3479 44.6872 41.25C44.6872 43.152 43.1518 44.6875 41.2497 44.6875C39.3247 44.6875 37.8122 43.152 37.8122 41.25C37.8122 39.3479 39.3476 37.8125 41.2497 37.8125ZM22.9163 11.4583H27.4997V16.0416H22.9163V11.4583ZM36.6663 16.0416H32.083V11.4583H36.6663V16.0416ZM32.083 20.625H36.6663V25.2083H32.083V20.625ZM22.9163 20.625H27.4997V25.2083H22.9163V20.625ZM30.0434 52.7083H4.58301V2.29163H45.833V25.8729C44.3893 25.4604 42.8538 25.2083 41.2497 25.2083V6.87496H9.16634V48.125H22.9163V40.1041H25.2768C25.208 40.4937 25.208 40.8604 25.208 41.25C25.208 45.7416 27.0643 49.7979 30.0434 52.7083ZM18.333 34.375H13.7497V29.7916H18.333V34.375ZM18.333 25.2083H13.7497V20.625H18.333V25.2083ZM18.333 16.0416H13.7497V11.4583H18.333V16.0416ZM13.7497 38.9583H18.333V43.5416H13.7497V38.9583ZM22.9163 29.7916H27.4997V33.0229C27.2476 33.4583 26.9955 33.9166 26.7663 34.375H22.9163V29.7916Z" fill="#FFFEFB"/>
</svg>
